<svg width="480" height="214" viewBox="0 0 480 214" fill="none" xmlns="http://www.w3.org/2000/svg">
<rect width="480" height="214" rx="12" fill="#F3F9FF"/>
<path d="M448.019 103.321V132.035C448.011 140.737 445.692 149.281 441.301 156.788C436.909 164.296 430.603 170.498 423.029 174.756L407.882 183.255L392.735 174.756C385.161 170.498 378.855 164.296 374.463 156.788C370.072 149.281 367.753 140.737 367.745 132.035V103.321C379.937 103.216 391.765 99.1406 401.443 91.7091L407.882 86.7427L414.321 91.7091C423.999 99.1406 435.827 103.216 448.019 103.321V103.321Z" fill="#F3F9FF"/>
<path d="M437.549 112.904V132.035C437.545 138.871 435.725 145.584 432.274 151.482C428.824 157.38 423.868 162.25 417.916 165.593L407.882 171.224L397.848 165.593C391.896 162.25 386.94 157.38 383.49 151.482C380.039 145.584 378.219 138.871 378.216 132.035V112.904C388.99 111.108 399.159 106.688 407.83 100.033L407.882 99.9805L407.934 100.033C416.605 106.688 426.774 111.108 437.549 112.904Z" fill="#FFD200"/>
<path d="M430.568 111.326V132.035C430.565 138.872 428.744 145.584 425.294 151.482C421.844 157.38 416.888 162.25 410.936 165.593L404.392 169.265L407.882 171.224L417.916 165.593C423.868 162.25 428.824 157.38 432.274 151.482C435.725 145.584 437.545 138.872 437.549 132.035V112.904C435.195 112.504 432.865 111.978 430.568 111.326V111.326Z" fill="#FFD200"/>
<path d="M407.882 185C407.583 185 407.289 184.923 407.029 184.776L391.88 176.276C384.035 171.867 377.502 165.444 372.954 157.668C368.406 149.892 366.006 141.043 366 132.029V103.321C366 102.859 366.182 102.415 366.507 102.088C366.832 101.76 367.274 101.575 367.735 101.572C379.545 101.473 391.002 97.528 400.378 90.3312L406.818 85.363C407.123 85.1276 407.497 85 407.882 85C408.267 85 408.641 85.1276 408.947 85.363L415.386 90.3312C424.762 97.528 436.22 101.473 448.03 101.572C448.491 101.575 448.932 101.76 449.257 102.088C449.582 102.415 449.764 102.859 449.764 103.321V132.029C449.758 141.042 447.357 149.891 442.809 157.666C438.261 165.442 431.729 171.864 423.885 176.272L408.735 184.776C408.475 184.923 408.181 185 407.882 185V185ZM369.49 105.031V132.029C369.495 140.421 371.73 148.661 375.965 155.901C380.2 163.14 386.282 169.12 393.586 173.224L407.882 181.247L422.178 173.224C429.482 169.12 435.565 163.14 439.799 155.901C444.034 148.661 446.269 140.421 446.274 132.029V105.031C434.305 104.568 422.772 100.401 413.262 93.1029L407.882 88.9549L402.502 93.1029C392.992 100.401 381.46 104.568 369.49 105.031V105.031Z" fill="#231F20"/>
<path d="M407.882 172.974C407.583 172.974 407.29 172.898 407.029 172.752L396.996 167.121C390.774 163.624 385.593 158.531 381.986 152.364C378.379 146.196 376.475 139.178 376.471 132.029V112.909C376.471 112.495 376.617 112.095 376.884 111.779C377.151 111.464 377.521 111.253 377.928 111.185C388.416 109.432 398.315 105.127 406.757 98.648C407.069 98.4056 407.451 98.2704 407.846 98.2625C408.241 98.2546 408.628 98.3745 408.95 98.6043C417.405 105.107 427.324 109.429 437.837 111.19C438.244 111.258 438.614 111.469 438.88 111.784C439.147 112.1 439.294 112.5 439.294 112.914V132.029C439.289 139.178 437.385 146.196 433.778 152.364C430.171 158.531 424.99 163.624 418.768 167.121L408.735 172.745C408.475 172.893 408.181 172.972 407.882 172.974V172.974ZM398.701 164.07L407.882 169.221L417.063 164.07C422.744 160.877 427.474 156.226 430.768 150.595C434.061 144.964 435.799 138.556 435.803 132.029V114.367C425.701 112.451 416.159 108.283 407.882 102.17C399.605 108.282 390.063 112.45 379.961 114.367V132.029C379.965 138.556 381.703 144.964 384.997 150.595C388.29 156.226 393.02 160.877 398.701 164.07V164.07Z" fill="#231F20"/>
<path d="M412.158 119.167H402.443C401.441 119.167 400.629 119.979 400.629 120.981V134.71H398.557C397.556 134.71 396.743 135.522 396.743 136.524C396.743 137.526 397.556 138.338 398.557 138.338H400.629V142.482H398.557C397.556 142.482 396.743 143.294 396.743 144.296C396.743 145.297 397.556 146.11 398.557 146.11H400.629V150.124C400.629 151.126 401.441 151.938 402.443 151.938C403.445 151.938 404.257 151.126 404.257 150.124V146.11H412.158C413.16 146.11 413.972 145.297 413.972 144.296C413.972 143.294 413.16 142.482 412.158 142.482H404.257V138.338H412.158C417.443 138.338 421.743 134.038 421.743 128.752C421.743 123.336 417.331 119.167 412.158 119.167ZM412.158 134.71H404.257V122.795H412.158C415.423 122.795 418.116 125.428 418.116 128.752C418.115 132.037 415.443 134.71 412.158 134.71Z" fill="#231F20"/>
</svg>
