<svg width="16" height="16" viewBox="0 0 16 16" fill="none" xmlns="http://www.w3.org/2000/svg">
<path d="M9.408 8.1448C8.99388 8.43007 8.50287 8.58282 8 8.58282C7.49713 8.58282 7.00612 8.43007 6.592 8.1448L1.625 4.7583C1.54563 4.99761 1.50347 5.24769 1.5 5.4998V10.4998C1.50079 11.1626 1.76444 11.798 2.23311 12.2667C2.70178 12.7354 3.3372 12.999 4 12.9998H12C12.6628 12.999 13.2982 12.7354 13.7669 12.2667C14.2356 11.798 14.4992 11.1626 14.5 10.4998V5.4998C14.4965 5.24769 14.4544 4.99761 14.375 4.7583L9.408 8.1448Z" fill="#0098D4"/>
<path d="M7.15551 7.319C7.40394 7.48999 7.69842 7.58154 8.00001 7.58154C8.3016 7.58154 8.59608 7.48999 8.84451 7.319L13.888 3.88C13.6558 3.60536 13.3667 3.38443 13.0407 3.23249C12.7148 3.08055 12.3597 3.00123 12 3H4C3.64035 3.00123 3.28526 3.08055 2.95928 3.23249C2.6333 3.38443 2.34421 3.60536 2.112 3.88L7.15551 7.319Z" fill="#0098D4"/>
</svg>
