<svg width="68" height="68" viewBox="0 0 68 68" fill="none" xmlns="http://www.w3.org/2000/svg">
<rect width="68" height="68" rx="17" fill="#2D2D2D"/>
<path d="M40.1458 17H26.4319C20.8585 17 16.3242 21.5437 16.3242 27.1288V40.8712C16.3242 46.4563 20.8585 51 26.4319 51H40.1458C45.7192 51 50.2535 46.4563 50.2535 40.8712V27.1288C50.2534 21.5437 45.7191 17 40.1458 17ZM46.8402 40.8712C46.8402 44.5761 43.843 47.5796 40.1458 47.5796H26.4319C22.7347 47.5796 19.7375 44.5761 19.7375 40.8712V27.1288C19.7375 23.4238 22.7347 20.4204 26.4319 20.4204H40.1458C43.843 20.4204 46.8402 23.4238 46.8402 27.1288V40.8712Z" fill="black"/>
<path d="M33.289 25.2061C28.4503 25.2061 24.5137 29.1508 24.5137 33.9995C24.5137 38.8482 28.4503 42.793 33.289 42.793C38.1277 42.793 42.0643 38.8482 42.0643 33.9995C42.0643 29.1507 38.1277 25.2061 33.289 25.2061ZM33.289 39.3727C30.3276 39.3727 27.927 36.9671 27.927 33.9995C27.927 31.032 30.3277 28.6264 33.289 28.6264C36.2504 28.6264 38.651 31.032 38.651 33.9995C38.651 36.967 36.2503 39.3727 33.289 39.3727Z" fill="black"/>
<path d="M42.0812 27.3809C43.2425 27.3809 44.1839 26.4376 44.1839 25.2739C44.1839 24.1103 43.2425 23.167 42.0812 23.167C40.9199 23.167 39.9784 24.1103 39.9784 25.2739C39.9784 26.4376 40.9199 27.3809 42.0812 27.3809Z" fill="black"/>
</svg>
