<svg width="68" height="68" viewBox="0 0 68 68" fill="none" xmlns="http://www.w3.org/2000/svg">
<rect width="68" height="68" rx="17" fill="#2D2D2D"/>
<path fill-rule="evenodd" clip-rule="evenodd" d="M47.7654 21.7782C49.3226 22.2064 50.549 23.4681 50.9652 25.0704C51.7215 27.9742 51.7215 34.0332 51.7215 34.0332C51.7215 34.0332 51.7215 40.092 50.9652 42.9961C50.549 44.5983 49.3226 45.86 47.7654 46.2884C44.9433 47.0664 33.6259 47.0664 33.6259 47.0664C33.6259 47.0664 22.3085 47.0664 19.4862 46.2884C17.929 45.86 16.7026 44.5983 16.2864 42.9961C15.5303 40.092 15.5303 34.0332 15.5303 34.0332C15.5303 34.0332 15.5303 27.9742 16.2864 25.0704C16.7026 23.4681 17.929 22.2064 19.4862 21.7782C22.3085 21 33.6259 21 33.6259 21C33.6259 21 44.9433 21 47.7654 21.7782ZM30.233 28.9326V40.2656L39.2808 34.5993L30.233 28.9326Z" fill="black"/>
</svg>
